<mxfile host="app.diagrams.net" modified="2023-11-06T17:07:22.230Z" agent="Mozilla/5.0 (Macintosh; Intel Mac OS X 10_15_7) AppleWebKit/537.36 (KHTML, like Gecko) Chrome/118.0.0.0 Safari/537.36" etag="vRysmCbCiff6W9nDkdA6" version="22.0.8" type="device">
  <diagram id="FgS90yQwINHz3JSQ8wSD" name="Page-1">
    <mxGraphModel dx="1363" dy="836" grid="1" gridSize="10" guides="1" tooltips="1" connect="1" arrows="1" fold="1" page="1" pageScale="1" pageWidth="850" pageHeight="1100" math="0" shadow="0">
      <root>
        <mxCell id="0" />
        <mxCell id="1" parent="0" />
        <mxCell id="fDnmCRsfkhBNDSyyjOqY-11" value="&amp;nbsp;&lt;div style=&quot;font-size: 25px;&quot; align=&quot;left&quot;&gt;&amp;nbsp; Out&lt;br&gt;&lt;/div&gt;&lt;div align=&quot;left&quot;&gt;&lt;br&gt;&lt;/div&gt;&lt;div align=&quot;left&quot;&gt;&lt;br&gt;&lt;/div&gt;&lt;div align=&quot;left&quot;&gt;&lt;br&gt;&lt;/div&gt;&lt;div align=&quot;left&quot;&gt;&lt;br&gt;&lt;/div&gt;&lt;div align=&quot;left&quot;&gt;&lt;br&gt;&lt;/div&gt;&lt;div align=&quot;left&quot;&gt;&lt;br&gt;&lt;/div&gt;&lt;div align=&quot;left&quot;&gt;&lt;br&gt;&lt;/div&gt;&lt;div align=&quot;left&quot;&gt;&lt;br&gt;&lt;/div&gt;&lt;div align=&quot;left&quot;&gt;&lt;br&gt;&lt;/div&gt;&lt;div align=&quot;left&quot;&gt;&lt;br&gt;&lt;/div&gt;&lt;div align=&quot;left&quot;&gt;&lt;br&gt;&lt;/div&gt;&lt;div align=&quot;left&quot;&gt;&lt;br&gt;&lt;/div&gt;&lt;div align=&quot;left&quot;&gt;&lt;br&gt;&lt;/div&gt;" style="whiteSpace=wrap;html=1;aspect=fixed;fillColor=#f5f5f5;strokeColor=#666666;fontColor=#333333;align=left;" parent="1" vertex="1">
          <mxGeometry x="469" y="270" width="250" height="250" as="geometry" />
        </mxCell>
        <mxCell id="fDnmCRsfkhBNDSyyjOqY-1" value="&amp;nbsp;&lt;div style=&quot;font-size: 25px;&quot; align=&quot;left&quot;&gt;&amp;nbsp; In&lt;br&gt;&lt;/div&gt;&lt;div align=&quot;left&quot;&gt;&lt;br&gt;&lt;/div&gt;&lt;div align=&quot;left&quot;&gt;&lt;br&gt;&lt;/div&gt;&lt;div align=&quot;left&quot;&gt;&lt;br&gt;&lt;/div&gt;&lt;div align=&quot;left&quot;&gt;&lt;br&gt;&lt;/div&gt;&lt;div align=&quot;left&quot;&gt;&lt;br&gt;&lt;/div&gt;&lt;div align=&quot;left&quot;&gt;&lt;br&gt;&lt;/div&gt;&lt;div align=&quot;left&quot;&gt;&lt;br&gt;&lt;/div&gt;&lt;div align=&quot;left&quot;&gt;&lt;br&gt;&lt;/div&gt;&lt;div align=&quot;left&quot;&gt;&lt;br&gt;&lt;/div&gt;&lt;div align=&quot;left&quot;&gt;&lt;br&gt;&lt;/div&gt;&lt;div align=&quot;left&quot;&gt;&lt;br&gt;&lt;/div&gt;&lt;div align=&quot;left&quot;&gt;&lt;br&gt;&lt;/div&gt;&lt;div align=&quot;left&quot;&gt;&lt;br&gt;&lt;/div&gt;" style="whiteSpace=wrap;html=1;aspect=fixed;fillColor=#f5f5f5;strokeColor=#666666;fontColor=#333333;align=left;" parent="1" vertex="1">
          <mxGeometry x="109" y="270" width="250" height="250" as="geometry" />
        </mxCell>
        <mxCell id="fDnmCRsfkhBNDSyyjOqY-2" value="&lt;div&gt;&amp;lt;--Row 1--&amp;gt;&lt;br&gt;&lt;/div&gt;&lt;div&gt;&amp;lt;--Row 2--&amp;gt;&lt;br&gt;&lt;/div&gt;&lt;div&gt;...&lt;/div&gt;&lt;div&gt;&lt;br&gt;&lt;/div&gt;&lt;div&gt;&amp;lt;--Row n--&amp;gt;&lt;br&gt;&lt;/div&gt;" style="whiteSpace=wrap;html=1;aspect=fixed;fillColor=#dae8fc;strokeColor=#6c8ebf;" parent="1" vertex="1">
          <mxGeometry x="269" y="355" width="80" height="80" as="geometry" />
        </mxCell>
        <mxCell id="fDnmCRsfkhBNDSyyjOqY-3" value="" style="shape=flexArrow;endArrow=classic;html=1;rounded=0;" parent="1" edge="1">
          <mxGeometry width="50" height="50" relative="1" as="geometry">
            <mxPoint x="374" y="410" as="sourcePoint" />
            <mxPoint x="454" y="410" as="targetPoint" />
          </mxGeometry>
        </mxCell>
        <mxCell id="fDnmCRsfkhBNDSyyjOqY-9" value="&lt;div&gt;&amp;lt;--Row n--&amp;gt;&lt;br&gt;&lt;/div&gt;&lt;div&gt;...&lt;/div&gt;&lt;div&gt;&lt;br&gt;&lt;/div&gt;&lt;div&gt;&amp;lt;--Row 2--&amp;gt;&lt;br&gt;&lt;/div&gt;&lt;div&gt;&amp;lt;--Row 1--&amp;gt;&lt;br&gt;&lt;/div&gt;" style="whiteSpace=wrap;html=1;aspect=fixed;fillColor=#dae8fc;strokeColor=#6c8ebf;rotation=90;" parent="1" vertex="1">
          <mxGeometry x="554" y="435" width="80" height="80" as="geometry" />
        </mxCell>
        <mxCell id="fDnmCRsfkhBNDSyyjOqY-10" value="Transpose" style="text;html=1;align=center;verticalAlign=middle;resizable=0;points=[];autosize=1;strokeColor=none;fillColor=none;" parent="1" vertex="1">
          <mxGeometry x="374" y="370" width="80" height="30" as="geometry" />
        </mxCell>
        <mxCell id="fDnmCRsfkhBNDSyyjOqY-21" value="Row load" style="text;html=1;align=center;verticalAlign=middle;resizable=0;points=[];autosize=1;strokeColor=none;fillColor=none;fontSize=25;" parent="1" vertex="1">
          <mxGeometry x="170" y="550" width="130" height="40" as="geometry" />
        </mxCell>
        <mxCell id="fDnmCRsfkhBNDSyyjOqY-107" value="&lt;div style=&quot;font-size: 20px;&quot;&gt;&lt;font style=&quot;font-size: 20px;&quot;&gt;Store loaded row as a column&amp;nbsp;&lt;/font&gt;&lt;/div&gt;&lt;div style=&quot;font-size: 20px;&quot;&gt;&lt;font style=&quot;font-size: 20px;&quot;&gt;in the&amp;nbsp;&lt;/font&gt;&lt;span style=&quot;background-color: initial;&quot;&gt;scratchpad local memory&lt;/span&gt;&lt;/div&gt;" style="text;html=1;align=center;verticalAlign=middle;resizable=0;points=[];autosize=1;strokeColor=none;fillColor=none;fontSize=25;" parent="1" vertex="1">
          <mxGeometry x="203" y="669" width="300" height="60" as="geometry" />
        </mxCell>
        <mxCell id="fDnmCRsfkhBNDSyyjOqY-108" value="" style="shape=flexArrow;endArrow=classic;html=1;rounded=0;fontSize=25;" parent="1" edge="1">
          <mxGeometry width="50" height="50" relative="1" as="geometry">
            <mxPoint x="223" y="647" as="sourcePoint" />
            <mxPoint x="163" y="717" as="targetPoint" />
          </mxGeometry>
        </mxCell>
        <mxCell id="fDnmCRsfkhBNDSyyjOqY-111" value="&lt;div&gt;Scratchpad&lt;/div&gt;" style="text;html=1;align=center;verticalAlign=middle;resizable=0;points=[];autosize=1;strokeColor=none;fillColor=none;fontSize=20;" parent="1" vertex="1">
          <mxGeometry x="124" y="990" width="120" height="40" as="geometry" />
        </mxCell>
        <mxCell id="fDnmCRsfkhBNDSyyjOqY-112" value="&lt;div&gt;Scratchpad&lt;/div&gt;" style="text;html=1;align=center;verticalAlign=middle;resizable=0;points=[];autosize=1;strokeColor=none;fillColor=none;fontSize=20;" parent="1" vertex="1">
          <mxGeometry x="584" y="990" width="120" height="40" as="geometry" />
        </mxCell>
        <mxCell id="fDnmCRsfkhBNDSyyjOqY-110" value="&lt;div&gt;Synchronize to make sure&lt;/div&gt;&lt;div&gt;all scratchpad has&lt;br&gt;&lt;/div&gt;&lt;div&gt;been written&lt;br&gt;&lt;/div&gt;" style="text;html=1;align=center;verticalAlign=middle;resizable=0;points=[];autosize=1;strokeColor=none;fillColor=none;fontSize=20;" parent="1" vertex="1">
          <mxGeometry x="289" y="800" width="250" height="90" as="geometry" />
        </mxCell>
        <mxCell id="fDnmCRsfkhBNDSyyjOqY-114" value="" style="shape=flexArrow;endArrow=classic;html=1;rounded=0;fontSize=25;" parent="1" edge="1">
          <mxGeometry width="50" height="50" relative="1" as="geometry">
            <mxPoint x="354" y="910" as="sourcePoint" />
            <mxPoint x="474" y="910" as="targetPoint" />
          </mxGeometry>
        </mxCell>
        <mxCell id="fDnmCRsfkhBNDSyyjOqY-124" value="Store row" style="text;html=1;align=center;verticalAlign=middle;resizable=0;points=[];autosize=1;strokeColor=none;fillColor=none;fontSize=25;" parent="1" vertex="1">
          <mxGeometry x="554" y="550" width="130" height="40" as="geometry" />
        </mxCell>
        <mxCell id="fDnmCRsfkhBNDSyyjOqY-128" value="&lt;div&gt;Store transposed row&lt;/div&gt;&lt;div&gt;as row in global memory&lt;br&gt;&lt;/div&gt;" style="text;html=1;align=center;verticalAlign=middle;resizable=0;points=[];autosize=1;strokeColor=none;fillColor=none;fontSize=20;" parent="1" vertex="1">
          <mxGeometry x="617" y="630" width="240" height="60" as="geometry" />
        </mxCell>
        <mxCell id="YiC09etCRmgrJ6dVuFfC-1" value="" style="group;rotation=-180;flipV=1;flipH=1;" vertex="1" connectable="0" parent="1">
          <mxGeometry x="109" y="742" width="150" height="240" as="geometry" />
        </mxCell>
        <mxCell id="fDnmCRsfkhBNDSyyjOqY-67" value="" style="whiteSpace=wrap;html=1;aspect=fixed;fontSize=25;fillColor=#f8cecc;strokeColor=#b85450;rotation=-180;" parent="YiC09etCRmgrJ6dVuFfC-1" vertex="1">
          <mxGeometry width="30" height="30" as="geometry" />
        </mxCell>
        <mxCell id="fDnmCRsfkhBNDSyyjOqY-68" value="" style="whiteSpace=wrap;html=1;aspect=fixed;fontSize=25;fillColor=#f8cecc;strokeColor=#b85450;rotation=-180;" parent="YiC09etCRmgrJ6dVuFfC-1" vertex="1">
          <mxGeometry y="30" width="30" height="30" as="geometry" />
        </mxCell>
        <mxCell id="fDnmCRsfkhBNDSyyjOqY-69" value="" style="whiteSpace=wrap;html=1;aspect=fixed;fontSize=25;fillColor=#f8cecc;strokeColor=#b85450;rotation=-180;" parent="YiC09etCRmgrJ6dVuFfC-1" vertex="1">
          <mxGeometry y="60" width="30" height="30" as="geometry" />
        </mxCell>
        <mxCell id="fDnmCRsfkhBNDSyyjOqY-70" value="" style="whiteSpace=wrap;html=1;aspect=fixed;fontSize=25;fillColor=#f8cecc;strokeColor=#b85450;rotation=-180;" parent="YiC09etCRmgrJ6dVuFfC-1" vertex="1">
          <mxGeometry y="90" width="30" height="30" as="geometry" />
        </mxCell>
        <mxCell id="fDnmCRsfkhBNDSyyjOqY-71" value="" style="whiteSpace=wrap;html=1;aspect=fixed;fontSize=25;fillColor=#f8cecc;strokeColor=#b85450;rotation=-180;" parent="YiC09etCRmgrJ6dVuFfC-1" vertex="1">
          <mxGeometry y="120" width="30" height="30" as="geometry" />
        </mxCell>
        <mxCell id="fDnmCRsfkhBNDSyyjOqY-72" value="" style="whiteSpace=wrap;html=1;aspect=fixed;fontSize=25;fillColor=#f8cecc;strokeColor=#b85450;rotation=-180;" parent="YiC09etCRmgrJ6dVuFfC-1" vertex="1">
          <mxGeometry y="150" width="30" height="30" as="geometry" />
        </mxCell>
        <mxCell id="fDnmCRsfkhBNDSyyjOqY-73" value="" style="whiteSpace=wrap;html=1;aspect=fixed;fontSize=25;fillColor=#f8cecc;strokeColor=#b85450;rotation=-180;" parent="YiC09etCRmgrJ6dVuFfC-1" vertex="1">
          <mxGeometry y="180" width="30" height="30" as="geometry" />
        </mxCell>
        <mxCell id="fDnmCRsfkhBNDSyyjOqY-74" value="" style="whiteSpace=wrap;html=1;aspect=fixed;fontSize=25;fillColor=#f8cecc;strokeColor=#b85450;rotation=-180;" parent="YiC09etCRmgrJ6dVuFfC-1" vertex="1">
          <mxGeometry y="210" width="30" height="30" as="geometry" />
        </mxCell>
        <mxCell id="fDnmCRsfkhBNDSyyjOqY-75" value="" style="whiteSpace=wrap;html=1;aspect=fixed;fontSize=25;fillColor=#fff2cc;strokeColor=#d6b656;rotation=-180;" parent="YiC09etCRmgrJ6dVuFfC-1" vertex="1">
          <mxGeometry x="30" width="30" height="30" as="geometry" />
        </mxCell>
        <mxCell id="fDnmCRsfkhBNDSyyjOqY-76" value="" style="whiteSpace=wrap;html=1;aspect=fixed;fontSize=25;fillColor=#fff2cc;strokeColor=#d6b656;rotation=-180;" parent="YiC09etCRmgrJ6dVuFfC-1" vertex="1">
          <mxGeometry x="30" y="30" width="30" height="30" as="geometry" />
        </mxCell>
        <mxCell id="fDnmCRsfkhBNDSyyjOqY-77" value="" style="whiteSpace=wrap;html=1;aspect=fixed;fontSize=25;fillColor=#fff2cc;strokeColor=#d6b656;rotation=-180;" parent="YiC09etCRmgrJ6dVuFfC-1" vertex="1">
          <mxGeometry x="30" y="60" width="30" height="30" as="geometry" />
        </mxCell>
        <mxCell id="fDnmCRsfkhBNDSyyjOqY-78" value="" style="whiteSpace=wrap;html=1;aspect=fixed;fontSize=25;fillColor=#fff2cc;strokeColor=#d6b656;rotation=-180;" parent="YiC09etCRmgrJ6dVuFfC-1" vertex="1">
          <mxGeometry x="30" y="90" width="30" height="30" as="geometry" />
        </mxCell>
        <mxCell id="fDnmCRsfkhBNDSyyjOqY-79" value="" style="whiteSpace=wrap;html=1;aspect=fixed;fontSize=25;fillColor=#fff2cc;strokeColor=#d6b656;rotation=-180;" parent="YiC09etCRmgrJ6dVuFfC-1" vertex="1">
          <mxGeometry x="30" y="120" width="30" height="30" as="geometry" />
        </mxCell>
        <mxCell id="fDnmCRsfkhBNDSyyjOqY-80" value="" style="whiteSpace=wrap;html=1;aspect=fixed;fontSize=25;fillColor=#fff2cc;strokeColor=#d6b656;rotation=-180;" parent="YiC09etCRmgrJ6dVuFfC-1" vertex="1">
          <mxGeometry x="30" y="150" width="30" height="30" as="geometry" />
        </mxCell>
        <mxCell id="fDnmCRsfkhBNDSyyjOqY-81" value="" style="whiteSpace=wrap;html=1;aspect=fixed;fontSize=25;fillColor=#fff2cc;strokeColor=#d6b656;rotation=-180;" parent="YiC09etCRmgrJ6dVuFfC-1" vertex="1">
          <mxGeometry x="30" y="180" width="30" height="30" as="geometry" />
        </mxCell>
        <mxCell id="fDnmCRsfkhBNDSyyjOqY-82" value="" style="whiteSpace=wrap;html=1;aspect=fixed;fontSize=25;fillColor=#fff2cc;strokeColor=#d6b656;rotation=-180;" parent="YiC09etCRmgrJ6dVuFfC-1" vertex="1">
          <mxGeometry x="30" y="210" width="30" height="30" as="geometry" />
        </mxCell>
        <mxCell id="fDnmCRsfkhBNDSyyjOqY-83" value="" style="whiteSpace=wrap;html=1;aspect=fixed;fontSize=25;fillColor=#fff2cc;strokeColor=#d6b656;rotation=-180;" parent="YiC09etCRmgrJ6dVuFfC-1" vertex="1">
          <mxGeometry x="60" width="30" height="30" as="geometry" />
        </mxCell>
        <mxCell id="fDnmCRsfkhBNDSyyjOqY-84" value="" style="whiteSpace=wrap;html=1;aspect=fixed;fontSize=25;fillColor=#fff2cc;strokeColor=#d6b656;rotation=-180;" parent="YiC09etCRmgrJ6dVuFfC-1" vertex="1">
          <mxGeometry x="60" y="30" width="30" height="30" as="geometry" />
        </mxCell>
        <mxCell id="fDnmCRsfkhBNDSyyjOqY-85" value="" style="whiteSpace=wrap;html=1;aspect=fixed;fontSize=25;fillColor=#fff2cc;strokeColor=#d6b656;rotation=-180;" parent="YiC09etCRmgrJ6dVuFfC-1" vertex="1">
          <mxGeometry x="60" y="60" width="30" height="30" as="geometry" />
        </mxCell>
        <mxCell id="fDnmCRsfkhBNDSyyjOqY-86" value="" style="whiteSpace=wrap;html=1;aspect=fixed;fontSize=25;fillColor=#fff2cc;strokeColor=#d6b656;rotation=-180;" parent="YiC09etCRmgrJ6dVuFfC-1" vertex="1">
          <mxGeometry x="60" y="90" width="30" height="30" as="geometry" />
        </mxCell>
        <mxCell id="fDnmCRsfkhBNDSyyjOqY-87" value="" style="whiteSpace=wrap;html=1;aspect=fixed;fontSize=25;fillColor=#fff2cc;strokeColor=#d6b656;rotation=-180;" parent="YiC09etCRmgrJ6dVuFfC-1" vertex="1">
          <mxGeometry x="60" y="120" width="30" height="30" as="geometry" />
        </mxCell>
        <mxCell id="fDnmCRsfkhBNDSyyjOqY-88" value="" style="whiteSpace=wrap;html=1;aspect=fixed;fontSize=25;fillColor=#fff2cc;strokeColor=#d6b656;rotation=-180;" parent="YiC09etCRmgrJ6dVuFfC-1" vertex="1">
          <mxGeometry x="60" y="150" width="30" height="30" as="geometry" />
        </mxCell>
        <mxCell id="fDnmCRsfkhBNDSyyjOqY-89" value="" style="whiteSpace=wrap;html=1;aspect=fixed;fontSize=25;fillColor=#fff2cc;strokeColor=#d6b656;rotation=-180;" parent="YiC09etCRmgrJ6dVuFfC-1" vertex="1">
          <mxGeometry x="60" y="180" width="30" height="30" as="geometry" />
        </mxCell>
        <mxCell id="fDnmCRsfkhBNDSyyjOqY-90" value="" style="whiteSpace=wrap;html=1;aspect=fixed;fontSize=25;fillColor=#fff2cc;strokeColor=#d6b656;rotation=-180;" parent="YiC09etCRmgrJ6dVuFfC-1" vertex="1">
          <mxGeometry x="60" y="210" width="30" height="30" as="geometry" />
        </mxCell>
        <mxCell id="fDnmCRsfkhBNDSyyjOqY-91" value="&lt;div&gt;...&lt;/div&gt;" style="whiteSpace=wrap;html=1;aspect=fixed;fontSize=25;fillColor=#fff2cc;strokeColor=#d6b656;rotation=-180;" parent="YiC09etCRmgrJ6dVuFfC-1" vertex="1">
          <mxGeometry x="90" width="30" height="30" as="geometry" />
        </mxCell>
        <mxCell id="fDnmCRsfkhBNDSyyjOqY-92" value="..." style="whiteSpace=wrap;html=1;aspect=fixed;fontSize=25;fillColor=#fff2cc;strokeColor=#d6b656;rotation=-180;" parent="YiC09etCRmgrJ6dVuFfC-1" vertex="1">
          <mxGeometry x="90" y="30" width="30" height="30" as="geometry" />
        </mxCell>
        <mxCell id="fDnmCRsfkhBNDSyyjOqY-93" value="..." style="whiteSpace=wrap;html=1;aspect=fixed;fontSize=25;fillColor=#fff2cc;strokeColor=#d6b656;rotation=-180;" parent="YiC09etCRmgrJ6dVuFfC-1" vertex="1">
          <mxGeometry x="90" y="60" width="30" height="30" as="geometry" />
        </mxCell>
        <mxCell id="fDnmCRsfkhBNDSyyjOqY-94" value="..." style="whiteSpace=wrap;html=1;aspect=fixed;fontSize=25;fillColor=#fff2cc;strokeColor=#d6b656;rotation=-180;" parent="YiC09etCRmgrJ6dVuFfC-1" vertex="1">
          <mxGeometry x="90" y="90" width="30" height="30" as="geometry" />
        </mxCell>
        <mxCell id="fDnmCRsfkhBNDSyyjOqY-95" value="..." style="whiteSpace=wrap;html=1;aspect=fixed;fontSize=25;fillColor=#fff2cc;strokeColor=#d6b656;rotation=-180;" parent="YiC09etCRmgrJ6dVuFfC-1" vertex="1">
          <mxGeometry x="90" y="120" width="30" height="30" as="geometry" />
        </mxCell>
        <mxCell id="fDnmCRsfkhBNDSyyjOqY-96" value="..." style="whiteSpace=wrap;html=1;aspect=fixed;fontSize=25;fillColor=#fff2cc;strokeColor=#d6b656;rotation=-180;" parent="YiC09etCRmgrJ6dVuFfC-1" vertex="1">
          <mxGeometry x="90" y="150" width="30" height="30" as="geometry" />
        </mxCell>
        <mxCell id="fDnmCRsfkhBNDSyyjOqY-97" value="..." style="whiteSpace=wrap;html=1;aspect=fixed;fontSize=25;fillColor=#fff2cc;strokeColor=#d6b656;rotation=-180;" parent="YiC09etCRmgrJ6dVuFfC-1" vertex="1">
          <mxGeometry x="90" y="180" width="30" height="30" as="geometry" />
        </mxCell>
        <mxCell id="fDnmCRsfkhBNDSyyjOqY-98" value="..." style="whiteSpace=wrap;html=1;aspect=fixed;fontSize=25;fillColor=#fff2cc;strokeColor=#d6b656;rotation=-180;" parent="YiC09etCRmgrJ6dVuFfC-1" vertex="1">
          <mxGeometry x="90" y="210" width="30" height="30" as="geometry" />
        </mxCell>
        <mxCell id="fDnmCRsfkhBNDSyyjOqY-99" value="" style="whiteSpace=wrap;html=1;aspect=fixed;fontSize=25;fillColor=#fff2cc;strokeColor=#d6b656;rotation=-180;" parent="YiC09etCRmgrJ6dVuFfC-1" vertex="1">
          <mxGeometry x="120" width="30" height="30" as="geometry" />
        </mxCell>
        <mxCell id="fDnmCRsfkhBNDSyyjOqY-100" value="" style="whiteSpace=wrap;html=1;aspect=fixed;fontSize=25;fillColor=#fff2cc;strokeColor=#d6b656;rotation=-180;" parent="YiC09etCRmgrJ6dVuFfC-1" vertex="1">
          <mxGeometry x="120" y="30" width="30" height="30" as="geometry" />
        </mxCell>
        <mxCell id="fDnmCRsfkhBNDSyyjOqY-101" value="" style="whiteSpace=wrap;html=1;aspect=fixed;fontSize=25;fillColor=#fff2cc;strokeColor=#d6b656;rotation=-180;" parent="YiC09etCRmgrJ6dVuFfC-1" vertex="1">
          <mxGeometry x="120" y="60" width="30" height="30" as="geometry" />
        </mxCell>
        <mxCell id="fDnmCRsfkhBNDSyyjOqY-102" value="" style="whiteSpace=wrap;html=1;aspect=fixed;fontSize=25;fillColor=#fff2cc;strokeColor=#d6b656;rotation=-180;" parent="YiC09etCRmgrJ6dVuFfC-1" vertex="1">
          <mxGeometry x="120" y="90" width="30" height="30" as="geometry" />
        </mxCell>
        <mxCell id="fDnmCRsfkhBNDSyyjOqY-103" value="" style="whiteSpace=wrap;html=1;aspect=fixed;fontSize=25;fillColor=#fff2cc;strokeColor=#d6b656;rotation=-180;" parent="YiC09etCRmgrJ6dVuFfC-1" vertex="1">
          <mxGeometry x="120" y="120" width="30" height="30" as="geometry" />
        </mxCell>
        <mxCell id="fDnmCRsfkhBNDSyyjOqY-104" value="" style="whiteSpace=wrap;html=1;aspect=fixed;fontSize=25;fillColor=#fff2cc;strokeColor=#d6b656;rotation=-180;" parent="YiC09etCRmgrJ6dVuFfC-1" vertex="1">
          <mxGeometry x="120" y="150" width="30" height="30" as="geometry" />
        </mxCell>
        <mxCell id="fDnmCRsfkhBNDSyyjOqY-105" value="" style="whiteSpace=wrap;html=1;aspect=fixed;fontSize=25;fillColor=#fff2cc;strokeColor=#d6b656;rotation=-180;" parent="YiC09etCRmgrJ6dVuFfC-1" vertex="1">
          <mxGeometry x="120" y="180" width="30" height="30" as="geometry" />
        </mxCell>
        <mxCell id="fDnmCRsfkhBNDSyyjOqY-106" value="" style="whiteSpace=wrap;html=1;aspect=fixed;fontSize=25;fillColor=#fff2cc;strokeColor=#d6b656;rotation=-180;" parent="YiC09etCRmgrJ6dVuFfC-1" vertex="1">
          <mxGeometry x="120" y="210" width="30" height="30" as="geometry" />
        </mxCell>
        <mxCell id="YiC09etCRmgrJ6dVuFfC-2" value="" style="group;rotation=-180;direction=east;" vertex="1" connectable="0" parent="1">
          <mxGeometry x="569" y="742" width="150" height="240" as="geometry" />
        </mxCell>
        <mxCell id="fDnmCRsfkhBNDSyyjOqY-22" value="" style="whiteSpace=wrap;html=1;aspect=fixed;fontSize=25;fillColor=#d5e8d4;strokeColor=#82b366;rotation=-180;direction=east;" parent="YiC09etCRmgrJ6dVuFfC-2" vertex="1">
          <mxGeometry width="30" height="30" as="geometry" />
        </mxCell>
        <mxCell id="fDnmCRsfkhBNDSyyjOqY-23" value="" style="whiteSpace=wrap;html=1;aspect=fixed;fontSize=25;fillColor=#fff2cc;strokeColor=#d6b656;rotation=-180;direction=east;" parent="YiC09etCRmgrJ6dVuFfC-2" vertex="1">
          <mxGeometry y="30" width="30" height="30" as="geometry" />
        </mxCell>
        <mxCell id="fDnmCRsfkhBNDSyyjOqY-24" value="" style="whiteSpace=wrap;html=1;aspect=fixed;fontSize=25;fillColor=#fff2cc;strokeColor=#d6b656;rotation=-180;direction=east;" parent="YiC09etCRmgrJ6dVuFfC-2" vertex="1">
          <mxGeometry y="60" width="30" height="30" as="geometry" />
        </mxCell>
        <mxCell id="fDnmCRsfkhBNDSyyjOqY-25" value="" style="whiteSpace=wrap;html=1;aspect=fixed;fontSize=25;fillColor=#fff2cc;strokeColor=#d6b656;rotation=-180;direction=east;" parent="YiC09etCRmgrJ6dVuFfC-2" vertex="1">
          <mxGeometry y="90" width="30" height="30" as="geometry" />
        </mxCell>
        <mxCell id="fDnmCRsfkhBNDSyyjOqY-26" value="" style="whiteSpace=wrap;html=1;aspect=fixed;fontSize=25;fillColor=#fff2cc;strokeColor=#d6b656;rotation=-180;direction=east;" parent="YiC09etCRmgrJ6dVuFfC-2" vertex="1">
          <mxGeometry y="120" width="30" height="30" as="geometry" />
        </mxCell>
        <mxCell id="fDnmCRsfkhBNDSyyjOqY-27" value="" style="whiteSpace=wrap;html=1;aspect=fixed;fontSize=25;fillColor=#fff2cc;strokeColor=#d6b656;rotation=-180;direction=east;" parent="YiC09etCRmgrJ6dVuFfC-2" vertex="1">
          <mxGeometry y="150" width="30" height="30" as="geometry" />
        </mxCell>
        <mxCell id="fDnmCRsfkhBNDSyyjOqY-28" value="" style="whiteSpace=wrap;html=1;aspect=fixed;fontSize=25;fillColor=#fff2cc;strokeColor=#d6b656;rotation=-180;direction=east;" parent="YiC09etCRmgrJ6dVuFfC-2" vertex="1">
          <mxGeometry y="180" width="30" height="30" as="geometry" />
        </mxCell>
        <mxCell id="fDnmCRsfkhBNDSyyjOqY-29" value="" style="whiteSpace=wrap;html=1;aspect=fixed;fontSize=25;fillColor=#fff2cc;strokeColor=#d6b656;rotation=-180;direction=east;" parent="YiC09etCRmgrJ6dVuFfC-2" vertex="1">
          <mxGeometry y="210" width="30" height="30" as="geometry" />
        </mxCell>
        <mxCell id="fDnmCRsfkhBNDSyyjOqY-33" value="" style="whiteSpace=wrap;html=1;aspect=fixed;fontSize=25;fillColor=#d5e8d4;strokeColor=#82b366;rotation=-180;direction=east;" parent="YiC09etCRmgrJ6dVuFfC-2" vertex="1">
          <mxGeometry x="30" width="30" height="30" as="geometry" />
        </mxCell>
        <mxCell id="fDnmCRsfkhBNDSyyjOqY-34" value="" style="whiteSpace=wrap;html=1;aspect=fixed;fontSize=25;fillColor=#fff2cc;strokeColor=#d6b656;rotation=-180;direction=east;" parent="YiC09etCRmgrJ6dVuFfC-2" vertex="1">
          <mxGeometry x="30" y="30" width="30" height="30" as="geometry" />
        </mxCell>
        <mxCell id="fDnmCRsfkhBNDSyyjOqY-35" value="" style="whiteSpace=wrap;html=1;aspect=fixed;fontSize=25;fillColor=#fff2cc;strokeColor=#d6b656;rotation=-180;direction=east;" parent="YiC09etCRmgrJ6dVuFfC-2" vertex="1">
          <mxGeometry x="30" y="60" width="30" height="30" as="geometry" />
        </mxCell>
        <mxCell id="fDnmCRsfkhBNDSyyjOqY-36" value="" style="whiteSpace=wrap;html=1;aspect=fixed;fontSize=25;fillColor=#fff2cc;strokeColor=#d6b656;rotation=-180;direction=east;" parent="YiC09etCRmgrJ6dVuFfC-2" vertex="1">
          <mxGeometry x="30" y="90" width="30" height="30" as="geometry" />
        </mxCell>
        <mxCell id="fDnmCRsfkhBNDSyyjOqY-37" value="" style="whiteSpace=wrap;html=1;aspect=fixed;fontSize=25;fillColor=#fff2cc;strokeColor=#d6b656;rotation=-180;direction=east;" parent="YiC09etCRmgrJ6dVuFfC-2" vertex="1">
          <mxGeometry x="30" y="120" width="30" height="30" as="geometry" />
        </mxCell>
        <mxCell id="fDnmCRsfkhBNDSyyjOqY-38" value="" style="whiteSpace=wrap;html=1;aspect=fixed;fontSize=25;fillColor=#fff2cc;strokeColor=#d6b656;rotation=-180;direction=east;" parent="YiC09etCRmgrJ6dVuFfC-2" vertex="1">
          <mxGeometry x="30" y="150" width="30" height="30" as="geometry" />
        </mxCell>
        <mxCell id="fDnmCRsfkhBNDSyyjOqY-39" value="" style="whiteSpace=wrap;html=1;aspect=fixed;fontSize=25;fillColor=#fff2cc;strokeColor=#d6b656;rotation=-180;direction=east;" parent="YiC09etCRmgrJ6dVuFfC-2" vertex="1">
          <mxGeometry x="30" y="180" width="30" height="30" as="geometry" />
        </mxCell>
        <mxCell id="fDnmCRsfkhBNDSyyjOqY-40" value="" style="whiteSpace=wrap;html=1;aspect=fixed;fontSize=25;fillColor=#fff2cc;strokeColor=#d6b656;rotation=-180;direction=east;" parent="YiC09etCRmgrJ6dVuFfC-2" vertex="1">
          <mxGeometry x="30" y="210" width="30" height="30" as="geometry" />
        </mxCell>
        <mxCell id="fDnmCRsfkhBNDSyyjOqY-41" value="" style="whiteSpace=wrap;html=1;aspect=fixed;fontSize=25;fillColor=#d5e8d4;strokeColor=#82b366;rotation=-180;direction=east;" parent="YiC09etCRmgrJ6dVuFfC-2" vertex="1">
          <mxGeometry x="60" width="30" height="30" as="geometry" />
        </mxCell>
        <mxCell id="fDnmCRsfkhBNDSyyjOqY-42" value="" style="whiteSpace=wrap;html=1;aspect=fixed;fontSize=25;fillColor=#fff2cc;strokeColor=#d6b656;rotation=-180;direction=east;" parent="YiC09etCRmgrJ6dVuFfC-2" vertex="1">
          <mxGeometry x="60" y="30" width="30" height="30" as="geometry" />
        </mxCell>
        <mxCell id="fDnmCRsfkhBNDSyyjOqY-43" value="" style="whiteSpace=wrap;html=1;aspect=fixed;fontSize=25;fillColor=#fff2cc;strokeColor=#d6b656;rotation=-180;direction=east;" parent="YiC09etCRmgrJ6dVuFfC-2" vertex="1">
          <mxGeometry x="60" y="60" width="30" height="30" as="geometry" />
        </mxCell>
        <mxCell id="fDnmCRsfkhBNDSyyjOqY-44" value="" style="whiteSpace=wrap;html=1;aspect=fixed;fontSize=25;fillColor=#fff2cc;strokeColor=#d6b656;rotation=-180;direction=east;" parent="YiC09etCRmgrJ6dVuFfC-2" vertex="1">
          <mxGeometry x="60" y="90" width="30" height="30" as="geometry" />
        </mxCell>
        <mxCell id="fDnmCRsfkhBNDSyyjOqY-45" value="" style="whiteSpace=wrap;html=1;aspect=fixed;fontSize=25;fillColor=#fff2cc;strokeColor=#d6b656;rotation=-180;direction=east;" parent="YiC09etCRmgrJ6dVuFfC-2" vertex="1">
          <mxGeometry x="60" y="120" width="30" height="30" as="geometry" />
        </mxCell>
        <mxCell id="fDnmCRsfkhBNDSyyjOqY-46" value="" style="whiteSpace=wrap;html=1;aspect=fixed;fontSize=25;fillColor=#fff2cc;strokeColor=#d6b656;rotation=-180;direction=east;" parent="YiC09etCRmgrJ6dVuFfC-2" vertex="1">
          <mxGeometry x="60" y="150" width="30" height="30" as="geometry" />
        </mxCell>
        <mxCell id="fDnmCRsfkhBNDSyyjOqY-47" value="" style="whiteSpace=wrap;html=1;aspect=fixed;fontSize=25;fillColor=#fff2cc;strokeColor=#d6b656;rotation=-180;direction=east;" parent="YiC09etCRmgrJ6dVuFfC-2" vertex="1">
          <mxGeometry x="60" y="180" width="30" height="30" as="geometry" />
        </mxCell>
        <mxCell id="fDnmCRsfkhBNDSyyjOqY-48" value="" style="whiteSpace=wrap;html=1;aspect=fixed;fontSize=25;fillColor=#fff2cc;strokeColor=#d6b656;rotation=-180;direction=east;" parent="YiC09etCRmgrJ6dVuFfC-2" vertex="1">
          <mxGeometry x="60" y="210" width="30" height="30" as="geometry" />
        </mxCell>
        <mxCell id="fDnmCRsfkhBNDSyyjOqY-49" value="&lt;div&gt;...&lt;/div&gt;" style="whiteSpace=wrap;html=1;aspect=fixed;fontSize=25;fillColor=#d5e8d4;strokeColor=#82b366;rotation=-180;direction=east;" parent="YiC09etCRmgrJ6dVuFfC-2" vertex="1">
          <mxGeometry x="90" width="30" height="30" as="geometry" />
        </mxCell>
        <mxCell id="fDnmCRsfkhBNDSyyjOqY-50" value="..." style="whiteSpace=wrap;html=1;aspect=fixed;fontSize=25;fillColor=#fff2cc;strokeColor=#d6b656;rotation=-180;direction=east;" parent="YiC09etCRmgrJ6dVuFfC-2" vertex="1">
          <mxGeometry x="90" y="30" width="30" height="30" as="geometry" />
        </mxCell>
        <mxCell id="fDnmCRsfkhBNDSyyjOqY-51" value="..." style="whiteSpace=wrap;html=1;aspect=fixed;fontSize=25;fillColor=#fff2cc;strokeColor=#d6b656;rotation=-180;direction=east;" parent="YiC09etCRmgrJ6dVuFfC-2" vertex="1">
          <mxGeometry x="90" y="60" width="30" height="30" as="geometry" />
        </mxCell>
        <mxCell id="fDnmCRsfkhBNDSyyjOqY-52" value="..." style="whiteSpace=wrap;html=1;aspect=fixed;fontSize=25;fillColor=#fff2cc;strokeColor=#d6b656;rotation=-180;direction=east;" parent="YiC09etCRmgrJ6dVuFfC-2" vertex="1">
          <mxGeometry x="90" y="90" width="30" height="30" as="geometry" />
        </mxCell>
        <mxCell id="fDnmCRsfkhBNDSyyjOqY-53" value="..." style="whiteSpace=wrap;html=1;aspect=fixed;fontSize=25;fillColor=#fff2cc;strokeColor=#d6b656;rotation=-180;direction=east;" parent="YiC09etCRmgrJ6dVuFfC-2" vertex="1">
          <mxGeometry x="90" y="120" width="30" height="30" as="geometry" />
        </mxCell>
        <mxCell id="fDnmCRsfkhBNDSyyjOqY-54" value="..." style="whiteSpace=wrap;html=1;aspect=fixed;fontSize=25;fillColor=#fff2cc;strokeColor=#d6b656;rotation=-180;direction=east;" parent="YiC09etCRmgrJ6dVuFfC-2" vertex="1">
          <mxGeometry x="90" y="150" width="30" height="30" as="geometry" />
        </mxCell>
        <mxCell id="fDnmCRsfkhBNDSyyjOqY-55" value="..." style="whiteSpace=wrap;html=1;aspect=fixed;fontSize=25;fillColor=#fff2cc;strokeColor=#d6b656;rotation=-180;direction=east;" parent="YiC09etCRmgrJ6dVuFfC-2" vertex="1">
          <mxGeometry x="90" y="180" width="30" height="30" as="geometry" />
        </mxCell>
        <mxCell id="fDnmCRsfkhBNDSyyjOqY-56" value="..." style="whiteSpace=wrap;html=1;aspect=fixed;fontSize=25;fillColor=#fff2cc;strokeColor=#d6b656;rotation=-180;direction=east;" parent="YiC09etCRmgrJ6dVuFfC-2" vertex="1">
          <mxGeometry x="90" y="210" width="30" height="30" as="geometry" />
        </mxCell>
        <mxCell id="fDnmCRsfkhBNDSyyjOqY-57" value="" style="whiteSpace=wrap;html=1;aspect=fixed;fontSize=25;fillColor=#d5e8d4;strokeColor=#82b366;rotation=-180;direction=east;" parent="YiC09etCRmgrJ6dVuFfC-2" vertex="1">
          <mxGeometry x="120" width="30" height="30" as="geometry" />
        </mxCell>
        <mxCell id="fDnmCRsfkhBNDSyyjOqY-58" value="" style="whiteSpace=wrap;html=1;aspect=fixed;fontSize=25;fillColor=#fff2cc;strokeColor=#d6b656;rotation=-180;direction=east;" parent="YiC09etCRmgrJ6dVuFfC-2" vertex="1">
          <mxGeometry x="120" y="30" width="30" height="30" as="geometry" />
        </mxCell>
        <mxCell id="fDnmCRsfkhBNDSyyjOqY-59" value="" style="whiteSpace=wrap;html=1;aspect=fixed;fontSize=25;fillColor=#fff2cc;strokeColor=#d6b656;rotation=-180;direction=east;" parent="YiC09etCRmgrJ6dVuFfC-2" vertex="1">
          <mxGeometry x="120" y="60" width="30" height="30" as="geometry" />
        </mxCell>
        <mxCell id="fDnmCRsfkhBNDSyyjOqY-60" value="" style="whiteSpace=wrap;html=1;aspect=fixed;fontSize=25;fillColor=#fff2cc;strokeColor=#d6b656;rotation=-180;direction=east;" parent="YiC09etCRmgrJ6dVuFfC-2" vertex="1">
          <mxGeometry x="120" y="90" width="30" height="30" as="geometry" />
        </mxCell>
        <mxCell id="fDnmCRsfkhBNDSyyjOqY-61" value="" style="whiteSpace=wrap;html=1;aspect=fixed;fontSize=25;fillColor=#fff2cc;strokeColor=#d6b656;rotation=-180;direction=east;" parent="YiC09etCRmgrJ6dVuFfC-2" vertex="1">
          <mxGeometry x="120" y="120" width="30" height="30" as="geometry" />
        </mxCell>
        <mxCell id="fDnmCRsfkhBNDSyyjOqY-62" value="" style="whiteSpace=wrap;html=1;aspect=fixed;fontSize=25;fillColor=#fff2cc;strokeColor=#d6b656;rotation=-180;direction=east;" parent="YiC09etCRmgrJ6dVuFfC-2" vertex="1">
          <mxGeometry x="120" y="150" width="30" height="30" as="geometry" />
        </mxCell>
        <mxCell id="fDnmCRsfkhBNDSyyjOqY-63" value="" style="whiteSpace=wrap;html=1;aspect=fixed;fontSize=25;fillColor=#fff2cc;strokeColor=#d6b656;rotation=-180;direction=east;" parent="YiC09etCRmgrJ6dVuFfC-2" vertex="1">
          <mxGeometry x="120" y="180" width="30" height="30" as="geometry" />
        </mxCell>
        <mxCell id="fDnmCRsfkhBNDSyyjOqY-64" value="" style="whiteSpace=wrap;html=1;aspect=fixed;fontSize=25;fillColor=#fff2cc;strokeColor=#d6b656;rotation=-180;direction=east;" parent="YiC09etCRmgrJ6dVuFfC-2" vertex="1">
          <mxGeometry x="120" y="210" width="30" height="30" as="geometry" />
        </mxCell>
        <mxCell id="YiC09etCRmgrJ6dVuFfC-5" value="" style="group" vertex="1" connectable="0" parent="1">
          <mxGeometry x="69" y="590" width="690" height="30" as="geometry" />
        </mxCell>
        <mxCell id="fDnmCRsfkhBNDSyyjOqY-12" value="" style="whiteSpace=wrap;html=1;aspect=fixed;fontSize=25;fillColor=#f8cecc;strokeColor=#b85450;" parent="YiC09etCRmgrJ6dVuFfC-5" vertex="1">
          <mxGeometry x="30" width="30" height="30" as="geometry" />
        </mxCell>
        <mxCell id="fDnmCRsfkhBNDSyyjOqY-13" value="" style="whiteSpace=wrap;html=1;aspect=fixed;fontSize=25;fillColor=#f8cecc;strokeColor=#b85450;" parent="YiC09etCRmgrJ6dVuFfC-5" vertex="1">
          <mxGeometry x="60" width="30" height="30" as="geometry" />
        </mxCell>
        <mxCell id="fDnmCRsfkhBNDSyyjOqY-14" value="" style="whiteSpace=wrap;html=1;aspect=fixed;fontSize=25;fillColor=#f8cecc;strokeColor=#b85450;" parent="YiC09etCRmgrJ6dVuFfC-5" vertex="1">
          <mxGeometry x="90" width="30" height="30" as="geometry" />
        </mxCell>
        <mxCell id="fDnmCRsfkhBNDSyyjOqY-15" value="" style="whiteSpace=wrap;html=1;aspect=fixed;fontSize=25;fillColor=#f8cecc;strokeColor=#b85450;" parent="YiC09etCRmgrJ6dVuFfC-5" vertex="1">
          <mxGeometry x="120" width="30" height="30" as="geometry" />
        </mxCell>
        <mxCell id="fDnmCRsfkhBNDSyyjOqY-16" value="" style="whiteSpace=wrap;html=1;aspect=fixed;fontSize=25;fillColor=#f8cecc;strokeColor=#b85450;" parent="YiC09etCRmgrJ6dVuFfC-5" vertex="1">
          <mxGeometry x="150" width="30" height="30" as="geometry" />
        </mxCell>
        <mxCell id="fDnmCRsfkhBNDSyyjOqY-17" value="" style="whiteSpace=wrap;html=1;aspect=fixed;fontSize=25;fillColor=#f8cecc;strokeColor=#b85450;" parent="YiC09etCRmgrJ6dVuFfC-5" vertex="1">
          <mxGeometry x="180" width="30" height="30" as="geometry" />
        </mxCell>
        <mxCell id="fDnmCRsfkhBNDSyyjOqY-18" value="" style="whiteSpace=wrap;html=1;aspect=fixed;fontSize=25;fillColor=#f8cecc;strokeColor=#b85450;" parent="YiC09etCRmgrJ6dVuFfC-5" vertex="1">
          <mxGeometry x="210" width="30" height="30" as="geometry" />
        </mxCell>
        <mxCell id="fDnmCRsfkhBNDSyyjOqY-19" value="" style="whiteSpace=wrap;html=1;aspect=fixed;fontSize=25;fillColor=#f8cecc;strokeColor=#b85450;" parent="YiC09etCRmgrJ6dVuFfC-5" vertex="1">
          <mxGeometry x="240" width="30" height="30" as="geometry" />
        </mxCell>
        <mxCell id="fDnmCRsfkhBNDSyyjOqY-65" value="" style="whiteSpace=wrap;html=1;aspect=fixed;fontSize=25;fillColor=#f5f5f5;strokeColor=#666666;fontColor=#333333;" parent="YiC09etCRmgrJ6dVuFfC-5" vertex="1">
          <mxGeometry x="270" width="30" height="30" as="geometry" />
        </mxCell>
        <mxCell id="fDnmCRsfkhBNDSyyjOqY-66" value="" style="whiteSpace=wrap;html=1;aspect=fixed;fontSize=25;fillColor=#f5f5f5;strokeColor=#666666;fontColor=#333333;" parent="YiC09etCRmgrJ6dVuFfC-5" vertex="1">
          <mxGeometry width="30" height="30" as="geometry" />
        </mxCell>
        <mxCell id="fDnmCRsfkhBNDSyyjOqY-116" value="" style="whiteSpace=wrap;html=1;aspect=fixed;fontSize=25;fillColor=#d5e8d4;strokeColor=#82b366;" parent="YiC09etCRmgrJ6dVuFfC-5" vertex="1">
          <mxGeometry x="420" width="30" height="30" as="geometry" />
        </mxCell>
        <mxCell id="fDnmCRsfkhBNDSyyjOqY-117" value="" style="whiteSpace=wrap;html=1;aspect=fixed;fontSize=25;fillColor=#d5e8d4;strokeColor=#82b366;" parent="YiC09etCRmgrJ6dVuFfC-5" vertex="1">
          <mxGeometry x="450" width="30" height="30" as="geometry" />
        </mxCell>
        <mxCell id="fDnmCRsfkhBNDSyyjOqY-118" value="" style="whiteSpace=wrap;html=1;aspect=fixed;fontSize=25;fillColor=#d5e8d4;strokeColor=#82b366;" parent="YiC09etCRmgrJ6dVuFfC-5" vertex="1">
          <mxGeometry x="480" width="30" height="30" as="geometry" />
        </mxCell>
        <mxCell id="fDnmCRsfkhBNDSyyjOqY-119" value="" style="whiteSpace=wrap;html=1;aspect=fixed;fontSize=25;fillColor=#d5e8d4;strokeColor=#82b366;" parent="YiC09etCRmgrJ6dVuFfC-5" vertex="1">
          <mxGeometry x="510" width="30" height="30" as="geometry" />
        </mxCell>
        <mxCell id="fDnmCRsfkhBNDSyyjOqY-120" value="" style="whiteSpace=wrap;html=1;aspect=fixed;fontSize=25;fillColor=#d5e8d4;strokeColor=#82b366;" parent="YiC09etCRmgrJ6dVuFfC-5" vertex="1">
          <mxGeometry x="540" width="30" height="30" as="geometry" />
        </mxCell>
        <mxCell id="fDnmCRsfkhBNDSyyjOqY-121" value="" style="whiteSpace=wrap;html=1;aspect=fixed;fontSize=25;fillColor=#d5e8d4;strokeColor=#82b366;" parent="YiC09etCRmgrJ6dVuFfC-5" vertex="1">
          <mxGeometry x="570" width="30" height="30" as="geometry" />
        </mxCell>
        <mxCell id="fDnmCRsfkhBNDSyyjOqY-122" value="" style="whiteSpace=wrap;html=1;aspect=fixed;fontSize=25;fillColor=#d5e8d4;strokeColor=#82b366;" parent="YiC09etCRmgrJ6dVuFfC-5" vertex="1">
          <mxGeometry x="600" width="30" height="30" as="geometry" />
        </mxCell>
        <mxCell id="fDnmCRsfkhBNDSyyjOqY-123" value="" style="whiteSpace=wrap;html=1;aspect=fixed;fontSize=25;fillColor=#d5e8d4;strokeColor=#82b366;" parent="YiC09etCRmgrJ6dVuFfC-5" vertex="1">
          <mxGeometry x="630" width="30" height="30" as="geometry" />
        </mxCell>
        <mxCell id="fDnmCRsfkhBNDSyyjOqY-125" value="" style="whiteSpace=wrap;html=1;aspect=fixed;fontSize=25;fillColor=#f5f5f5;strokeColor=#666666;fontColor=#333333;" parent="YiC09etCRmgrJ6dVuFfC-5" vertex="1">
          <mxGeometry x="660" width="30" height="30" as="geometry" />
        </mxCell>
        <mxCell id="fDnmCRsfkhBNDSyyjOqY-126" value="" style="whiteSpace=wrap;html=1;aspect=fixed;fontSize=25;fillColor=#f5f5f5;strokeColor=#666666;fontColor=#333333;" parent="YiC09etCRmgrJ6dVuFfC-5" vertex="1">
          <mxGeometry x="390" width="30" height="30" as="geometry" />
        </mxCell>
        <mxCell id="YiC09etCRmgrJ6dVuFfC-6" value="" style="shape=flexArrow;endArrow=classic;html=1;rounded=0;fontSize=25;" edge="1" parent="1">
          <mxGeometry width="50" height="50" relative="1" as="geometry">
            <mxPoint x="637" y="715.9999999999995" as="sourcePoint" />
            <mxPoint x="577" y="645.9999999999995" as="targetPoint" />
          </mxGeometry>
        </mxCell>
      </root>
    </mxGraphModel>
  </diagram>
</mxfile>
